inDegrees=no
num_controls=7
num_derivatives=13
num_iterations=153
num_multipliers=7
num_parameters=0
num_slacks=7
num_states=26
objective=0.489133
objective_accelerations=0.003721
objective_balance=0.003568
objective_effort=0.007981
objective_height=0.384498
objective_ligament=0.089366
solver_duration=2044.730356
status=Solve_Succeeded
success=true
DataType=double
version=3
OpenSimVersion=4.5
endheader
time	/jointset/ground_pelvis/pelvis_tilt/value	/jointset/ground_pelvis/pelvis_tx/value	/jointset/ground_pelvis/pelvis_ty/value	/jointset/hip_l/hip_flexion_l/value	/jointset/hip_l/hip_adduction_l/value	/jointset/hip_l/hip_rotation_l/value	/jointset/back/lumbar_extension/value	/jointset/patellofemoral_l/patellar_flexion_l/value	/jointset/knee_l/knee_flexion_l/value	/jointset/knee_l/knee_adduction_l/value	/jointset/knee_l/knee_rotation_l/value	/jointset/ankle_l/ankle_angle_l/value	/jointset/subtalar_l/subtalar_angle_l/value	/jointset/ground_pelvis/pelvis_tilt/speed	/jointset/ground_pelvis/pelvis_tx/speed	/jointset/ground_pelvis/pelvis_ty/speed	/jointset/hip_l/hip_flexion_l/speed	/jointset/hip_l/hip_adduction_l/speed	/jointset/hip_l/hip_rotation_l/speed	/jointset/back/lumbar_extension/speed	/jointset/patellofemoral_l/patellar_flexion_l/speed	/jointset/knee_l/knee_flexion_l/speed	/jointset/knee_l/knee_adduction_l/speed	/jointset/knee_l/knee_rotation_l/speed	/jointset/ankle_l/ankle_angle_l/speed	/jointset/subtalar_l/subtalar_angle_l/speed	/forceset/tau_hip_flexion_l	/forceset/tau_hip_adduction_l	/forceset/tau_hip_rotation_l	/forceset/tau_knee_flexion_l	/forceset/tau_ankle_angle_l	/forceset/tau_subtalar_angle_l	/forceset/tau_lumbar_extension	lambda_cid13_p0	lambda_cid13_p1	lambda_cid13_p2	lambda_cid13_p3	lambda_cid13_p4	lambda_cid13_p5	lambda_cid14_p0	/jointset/ground_pelvis/pelvis_tilt/accel	/jointset/ground_pelvis/pelvis_tx/accel	/jointset/ground_pelvis/pelvis_ty/accel	/jointset/hip_l/hip_flexion_l/accel	/jointset/hip_l/hip_adduction_l/accel	/jointset/hip_l/hip_rotation_l/accel	/jointset/back/lumbar_extension/accel	/jointset/patellofemoral_l/patellar_flexion_l/accel	/jointset/knee_l/knee_flexion_l/accel	/jointset/knee_l/knee_adduction_l/accel	/jointset/knee_l/knee_rotation_l/accel	/jointset/ankle_l/ankle_angle_l/accel	/jointset/subtalar_l/subtalar_angle_l/accel	gamma_cid13_p0	gamma_cid13_p1	gamma_cid13_p2	gamma_cid13_p3	gamma_cid13_p4	gamma_cid13_p5	gamma_cid14_p0
0.5	0.009666112282957806	0.04268118578965294	0.9272797973458548	0.2853233064242467	-0.2301970912106815	-0.3355600145452162	-0.4845381699201926	0.2350855187292476	0.2350855187292106	-0.04147176339021216	-0.174525026593836	-0.001718869073287717	0.06890629627325036	0.06354965492004083	0.01495892312744079	0.01291705384743569	-0.1206496300126498	0.03569564263282304	-0.03407735032821128	-0.2566289774564569	-0.06899748184237067	-0.06899748184237645	0.05175102603294818	1.571561470013694e-06	0.004903375312003597	0.04003999879007508	-0.07546623771725913	0.05956418161168511	-0.007664058288545585	-0.1237181798348943	0.1199649042501216	-0.03510799392346	0.1626091411534359	-10.2895918231907	13.86996280162165	0.9657059085086335	1.456470508567402	-705.6194508746515	-36.49784468084909	-22.56561540175545	0.152240268014753	0.05059288149707823	0.02945161347779268	-0.3407095091840067	0.0127891873076122	-0.04578016948986748	0.1661916433794904	-0.1804335859621782	-0.1804335859621894	-0.03994835067090119	0.00278523070530391	0.001835590162169956	0.01551226073484773	-2.357648289482334e-09	2.905411325964547e-09	-9.992797338002027e-10	1.127252992422142e-09	-2.905575302370012e-09	2.996014070849705e-09	-6.989301722454574e-10
0.51	0.01030909181904196	0.0428332859619828	0.9274104139177447	0.2841000308145806	-0.229839514034393	-0.3359031464552036	-0.487095693429089	0.2343866729868096	0.2343866729866585	-0.04095622427867589	-0.1745249854015108	-0.001669716101837592	0.06930746402681907	0.06504624159871294	0.01546011141643167	0.01320587242696829	-0.1240049959662726	0.03581818933047302	-0.03454872157877037	-0.2548430692641699	-0.07077218972949675	-0.07077218972949756	0.05135286779110644	5.985198928729647e-06	0.004925066350926044	0.04019101662612518	-0.07666999632520193	0.06030282128217776	-0.007668932569598324	-0.1216067160895346	0.1176661742806802	-0.03484064969485939	0.1638564634516732	-11.01332623868007	13.83460023145789	1.023858890007294	1.722649504047134	-705.7104454500795	-36.42843680611571	-22.55307046596334	0.1483659389537849	0.04973203843982887	0.02853816270406773	-0.3328761406636004	0.01174704409456635	-0.0477687923147227	0.1896886656349336	-0.1760677142366441	-0.1760677142358726	-0.04033855627942973	-0.0008330977012050732	0.002012608036480729	0.01451598108651544	-2.269569453106184e-09	2.833173309040062e-09	-1.010014235764155e-09	1.104294273296054e-09	-3.043957841347611e-09	2.934735921209994e-09	-6.589844676159113e-10
0.52	0.01096703683612744	0.04299036806437102	0.9275439069119337	0.2828432163449569	-0.2294807594645492	-0.3362509827155594	-0.4896343782043641	0.2336700645005731	0.2336700645005315	-0.04044478454860966	-0.1745249205784875	-0.001620410870549064	0.06971006584595715	0.06654275112377483	0.0159553091391122	0.01349233830718828	-0.1273574020083857	0.03593112135213184	-0.03501822040836802	-0.2528612307326287	-0.07255003058257561	-0.07255003058257137	0.05093114973572219	6.297717699784325e-06	0.004933827281017946	0.04032681190403783	-0.07787375493284156	0.06104146095281818	-0.007673806850175722	-0.1194952523440254	0.1153674443113226	-0.03457330546607605	0.1651037857500492	-11.73855558320416	13.79905232056191	1.082552104770517	1.989351394524292	-705.8255596494977	-36.36260073226822	-22.54017146749349	0.1522248372926231	0.04939476823498495	0.02898107361525665	-0.3401175268819013	0.01086625210938757	-0.0454056852975898	0.2053777112302265	-0.181060179152686	-0.1810601791526845	-0.0446603133793673	0.001965006967753223	-0.0007504316039563515	0.01246774910736186	-2.138121495753526e-09	2.851167558077233e-09	-1.065589232340363e-09	1.070299614279847e-09	-3.113518941550165e-09	3.059591512817414e-09	-6.073567420617427e-10
0.53	0.01163994426491223	0.04315237425425611	0.9276802527196234	0.2815528944155301	-0.2291209220316662	-0.3366034964501574	-0.4921522833069708	0.2329356641029103	0.2329356641028281	-0.03993767664178819	-0.1745248642969882	-0.001571078664286765	0.07011395265324412	0.06803823788832607	0.01644515473609878	0.01377639613282641	-0.1307059907273706	0.03603495289928724	-0.03548428891784477	-0.2506885403651856	-0.07433028211094156	-0.07433028211093676	0.05048701980250598	4.275441404395398e-06	0.004930898010596685	0.04044838358149305	-0.07898928555446584	0.06173810903753059	-0.007680988855047097	-0.1174814647856511	0.1131967828644668	-0.03432897398511811	0.166287451756077	-12.42218889753876	13.76859173155933	1.137720243271189	2.230682097316047	-705.9141001815573	-36.29554032657241	-22.52691421875079	0.1481357998746087	0.04866355064926726	0.02805344230199821	-0.332080928179928	0.009929917638412779	-0.04717149358464859	0.2279021127187464	-0.1765424970619768	-0.1765424970618685	-0.04480085882813076	-0.001388597163199833	-0.0003218758876444847	0.01167671341406503	-2.014472528931799e-09	2.787701204305495e-09	-1.094489407853141e-09	1.030362519437298e-09	-3.143723826659182e-09	3.036561360125552e-09	-5.590593021849982e-10
0.54	0.01232779160209339	0.04331925571915533	0.9278194261666232	0.2802291163221695	-0.2287600886210285	-0.3369606636817841	-0.4946475240232586	0.2321834542184476	0.2321834542184215	-0.03943511233938339	-0.1745248487887217	-0.00152182729095996	0.07051899014457499	0.06953073280638436	0.01693036414193926	0.01405786616920179	-0.1340486347972847	0.03613031691121974	-0.03594891981979825	-0.2483283534690568	-0.07611192793464482	-0.07611192793463942	0.05002242884787265	-1.856924292257088e-06	0.004917660695119438	0.0405569487129314	-0.08010481617587055	0.06243475712235607	-0.007688170859986732	-0.1154676772271689	0.1110261214176761	-0.03408464250401405	0.1674711177622007	-13.10733797981976	13.73794933245239	1.193428187294812	2.472608524458416	-706.0269968172713	-36.23210667504218	-22.5132949436807	0.1516264679939268	0.04846753000576522	0.02846351576269609	-0.3389285970676071	0.009172745064814396	-0.04511816379294777	0.242877016967242	-0.1813390382201042	-0.1813390382200958	-0.04875251766276504	0.001142989087484422	-0.002812040615141829	0.009866439903997291	-1.899452232484719e-09	2.634108226149429e-09	-1.093877015380845e-09	9.838508147443277e-10	-3.13038566528173e-09	2.849912937145122e-09	-5.144464336960422e-10
